# xmcd
#
# Track frame offsets:
#	150
#	20996
#	33576
#	39164
#	51080
#	72233
#	86612
#	103798
#	115183
#	130414
#	143840
#	165716
#	178674
#	193103
#	212716
#	234571
#	245642
#	256396
#	269499
#	282483
#
# Disc length: 3881 seconds
#
# Revision: 0
# Processed by: cddbd v1.5.1PL2 Copyright (c) Steve Scherf et al.
# Submitted via: audiograbber 1.83.01
#
DISCID=340f2714
DTITLE=йыстас тоуямас  - астяа and астяомеияа20 лецакес епитувиес мо 2 
DYEAR=1995
DGENRE=екк ROCK
TTITLE0=апеяамта выяажиа  (апоспаслата)
TTITLE1=астяомеияа
TTITLE2=жыс
TTITLE3=амма
TTITLE4=петяос
TTITLE5=кеуйа жтеяа
TTITLE6=калпеис
TTITLE7=сам покутило петяади
TTITLE8=втупа та тулпама
TTITLE9=дем евеи аккг еккада
TTITLE10=DANCE ON  (GREESCO)
TTITLE11=U.F.O.
TTITLE12=тыяа тыяа тыяа  (TORA TORA TORA)
TTITLE13=сгйы and вояеье
TTITLE14=ека стгм ацйакиа лоу
TTITLE15=ьела
TTITLE16=кицг алаятиа
TTITLE17=етси ма се хулалаи
TTITLE18=де летамиымы  (оявгстяийо)
TTITLE19=йуяиес and йуяиои '  (жимаке)
EXTD=
EXTT0=
EXTT1=
EXTT2=
EXTT3=
EXTT4=
EXTT5=
EXTT6=
EXTT7=
EXTT8=
EXTT9=
EXTT10=
EXTT11=
EXTT12=
EXTT13=
EXTT14=
EXTT15=
EXTT16=
EXTT17=
EXTT18=
EXTT19=
PLAYORDER=
